<?xml version="1.0" encoding="utf-8"?>
<!-- Generator: Adobe Illustrator 19.0.1, SVG Export Plug-In . SVG Version: 6.00 Build 0)  -->
<svg version="1.1" id="Layer_1" xmlns="http://www.w3.org/2000/svg" xmlns:xlink="http://www.w3.org/1999/xlink" x="0px" y="0px"
	 viewBox="-9 11 100 100" enable-background="new -9 11 100 100" xml:space="preserve">
<g>
	<path fill="#FFFFFF" d="M41,11C13.4,11-9,33.4-9,61s22.4,50,50,50c27.6,0,50-22.4,50-50S68.6,11,41,11z M41,105.2
		C16.6,105.2-3.2,85.4-3.2,61c0-24.4,19.8-44.2,44.2-44.2S85.2,36.6,85.2,61C85.2,85.4,65.4,105.2,41,105.2z"/>
</g>
<g>
	<path fill="#FFFFFF" d="M57.2,58.1l-13.4,0l0-13.4c0-1.6-1.3-2.9-2.9-2.9c-1.6,0-2.9,1.3-2.9,2.9l0,13.4l-13.4,0
		c-1.6,0-2.9,1.3-2.9,2.9c0,1.6,1.3,2.9,2.9,2.9l13.4,0v13.4c0,1.6,1.3,2.9,2.9,2.9c1.6,0,2.9-1.3,2.9-2.9V63.9h13.4
		c1.6,0,2.9-1.3,2.9-2.9C60.1,59.4,58.8,58.1,57.2,58.1z"/>
</g>
</svg>
