<?xml version="1.0" encoding="utf-8"?>
<!-- Generator: Adobe Illustrator 18.1.1, SVG Export Plug-In . SVG Version: 6.00 Build 0)  -->
<svg version="1.1" id="Layer_1" xmlns="http://www.w3.org/2000/svg" xmlns:xlink="http://www.w3.org/1999/xlink" x="0px" y="0px"
	 viewBox="0 0 260 256" enable-background="new 0 0 260 256" xml:space="preserve">
<g>
	<path fill="#FFFFFF" d="M132.3,154H159v38.6c0,9.8-2.4,17.4-7.2,22.6c-4.8,5.2-11.9,7.8-21.3,7.8c-9.4,0-16.5-2.6-21.3-7.9
		c-4.8-5.3-7.2-12.8-7.2-22.7v-63.3c0-9.8,2.4-17.4,7.2-22.7c4.8-5.3,11.9-7.9,21.3-7.9c9.4,0,16.5,2.6,21.3,7.9
		c4.8,5.3,7.2,12.8,7.2,22.7V141H141v-13c0-4.4-0.9-7.5-2.7-9.3c-1.8-1.8-4.2-2.7-7.2-2.7c-3,0-5.4,0.9-7.2,2.7
		c-1.8,1.8-2.7,4.9-2.7,9.3v65.8c0,4.4,0.9,7.5,2.7,9.2c1.8,1.7,4.2,2.6,7.2,2.6c3,0,5.4-0.9,7.2-2.6c1.8-1.7,2.7-4.8,2.7-9.2v-22.4
		h-8.7V154z"/>
	<g>
		<path fill="#FFFFFF" d="M130.5,17c3.1,0,6.1,1.6,7.7,4.7l107.1,208.1c3,5.8-1.2,12.7-7.7,12.7H23.5c-6.5,0-10.7-6.9-7.7-12.7
			L122.8,21.7C124.4,18.6,127.5,17,130.5,17 M130.5,5c-7.8,0-14.8,4.3-18.4,11.2L5.1,224.4c-3.3,6.5-3.1,14,0.7,20.3
			c3.8,6.2,10.4,9.9,17.7,9.9h214.1c7.3,0,13.9-3.7,17.7-9.9c3.8-6.2,4.1-13.8,0.7-20.3L148.9,16.3C145.4,9.3,138.3,5,130.5,5
			L130.5,5z"/>
	</g>
</g>
</svg>
