<?xml version="1.0" encoding="utf-8"?>
<!-- Generator: Adobe Illustrator 19.0.1, SVG Export Plug-In . SVG Version: 6.00 Build 0)  -->
<svg version="1.1" id="Layer_1" xmlns="http://www.w3.org/2000/svg" xmlns:xlink="http://www.w3.org/1999/xlink" x="0px" y="0px"
	 viewBox="-9 11 100 100" enable-background="new -9 11 100 100" xml:space="preserve">
<g>
	<path fill="#FFFFFF" d="M41,11C13.4,11-9,33.4-9,61s22.4,50,50,50c27.6,0,50-22.4,50-50S68.6,11,41,11z M41,105.2
		C16.6,105.2-3.2,85.4-3.2,61c0-24.4,19.8-44.2,44.2-44.2S85.2,36.6,85.2,61C85.2,85.4,65.4,105.2,41,105.2z"/>
</g>
<g>
	<path fill="#FFFFFF" d="M50.4,47.5L41,56.9l-9.4-9.4c-1.1-1.1-3-1.1-4.1,0c-1.1,1.1-1.1,3,0,4.1l9.4,9.4l-9.4,9.4
		c-1.1,1.1-1.1,3,0,4.1c1.1,1.1,3,1.1,4.1,0l9.4-9.4l9.4,9.4c1.1,1.1,3,1.1,4.1,0c1.1-1.1,1.1-3,0-4.1L45.1,61l9.4-9.4
		c1.1-1.1,1.1-3,0-4.1C53.4,46.3,51.6,46.3,50.4,47.5z"/>
</g>
</svg>
